<svg xmlns="http://www.w3.org/2000/svg" viewBox="0 0 450 320">
  <rect width="450" height="320" fill="#0d1117" rx="8"/>

  <!-- Title -->
  <text x="225" y="30" text-anchor="middle" font-family="monospace" font-size="15" font-weight="bold" fill="#e0e0e0">Office Network — Converged Tree</text>

  <!-- Node positions: A(225,90) B(100,190) C(225,190) D(350,190) E(225,280) -->

  <!-- Mesh links (background, faint) -->
  <line x1="225" y1="90" x2="100" y2="190" stroke="#404860" stroke-width="1" opacity="0.4"/><!-- A—B -->
  <line x1="225" y1="90" x2="350" y2="190" stroke="#404860" stroke-width="1" opacity="0.4"/><!-- A—D -->
  <line x1="100" y1="190" x2="225" y2="190" stroke="#404860" stroke-width="1" opacity="0.4"/><!-- B—C -->
  <line x1="100" y1="190" x2="350" y2="190" stroke="#404860" stroke-width="1" opacity="0.4"/><!-- B—D -->
  <line x1="350" y1="190" x2="225" y2="190" stroke="#404860" stroke-width="1" opacity="0.4"/><!-- D—C -->
  <line x1="225" y1="190" x2="225" y2="280" stroke="#404860" stroke-width="1" opacity="0.4"/><!-- C—E -->

  <!-- Tree links (gold) -->
  <line x1="225" y1="90" x2="100" y2="190" stroke="#d0a040" stroke-width="2.5"/><!-- A→B -->
  <line x1="225" y1="90" x2="225" y2="190" stroke="#d0a040" stroke-width="2.5"/><!-- A→C -->
  <line x1="225" y1="90" x2="350" y2="190" stroke="#d0a040" stroke-width="2.5"/><!-- A→D -->
  <line x1="225" y1="190" x2="225" y2="280" stroke="#d0a040" stroke-width="2.5"/><!-- C→E -->

  <!-- Node A (root) -->
  <circle cx="225" cy="90" r="22" fill="#1a1a2e" stroke="#d0a040" stroke-width="2.5"/>
  <text x="225" y="95" text-anchor="middle" font-family="monospace" font-size="14" font-weight="bold" fill="#e0e0e0">A</text>
  <text x="225" y="56" text-anchor="middle" font-family="monospace" font-size="11" fill="#d0a040">&#9733; root</text>

  <!-- Node B -->
  <circle cx="100" cy="190" r="22" fill="#1a1a2e" stroke="#e0e0e0" stroke-width="2"/>
  <text x="100" y="195" text-anchor="middle" font-family="monospace" font-size="14" font-weight="bold" fill="#e0e0e0">B</text>

  <!-- Node C -->
  <circle cx="225" cy="190" r="22" fill="#1a1a2e" stroke="#e0e0e0" stroke-width="2"/>
  <text x="225" y="195" text-anchor="middle" font-family="monospace" font-size="14" font-weight="bold" fill="#e0e0e0">C</text>

  <!-- Node D -->
  <circle cx="350" cy="190" r="22" fill="#1a1a2e" stroke="#e0e0e0" stroke-width="2"/>
  <text x="350" y="195" text-anchor="middle" font-family="monospace" font-size="14" font-weight="bold" fill="#e0e0e0">D</text>

  <!-- Node E -->
  <circle cx="225" cy="280" r="22" fill="#1a1a2e" stroke="#e0e0e0" stroke-width="2"/>
  <text x="225" y="285" text-anchor="middle" font-family="monospace" font-size="14" font-weight="bold" fill="#e0e0e0">E</text>
</svg>
